<svg xmlns="http://www.w3.org/2000/svg" width="30" height="30" viewBox="0 0 30 30" fill="none">
  <rect width="30" height="30" rx="15" fill="#0C6DFF"/>
  <path d="M11 9.5C11 7.01472 13.0147 5 15.5 5H17C18.1046 5 19 5.89543 19 7V10C19 12.2091 17.2091 14 15 14C12.7909 14 11 12.2091 11 10V9.5Z" fill="white"/>
  <path fill-rule="evenodd" clip-rule="evenodd" d="M4.67529 21.1192C7.36467 18.5663 10.9996 17 15.0004 17C19.001 17 22.6358 18.5661 25.3251 21.1187C23.2339 24.64 19.3926 27 15.0001 27C10.6077 27 6.76658 24.6402 4.67529 21.1192Z" fill="white"/>
</svg>